<?xml version="1.0" encoding="iso-8859-1"?>
<!-- Uploaded to: SVG Repo, www.svgrepo.com, Generator: SVG Repo Mixer Tools -->
<svg fill="#000000" version="1.1" id="Layer_1" xmlns="http://www.w3.org/2000/svg" xmlns:xlink="http://www.w3.org/1999/xlink" 
	 viewBox="0 0 512 512" xml:space="preserve">
<g>
	<g>
		<path d="M434.689,367.475v-9.425h0.001c0-21.832-17.761-39.593-39.592-39.593c-21.832,0-39.593,17.761-39.593,39.593v9.425h-10.37
			v88.612h99.217v-88.612H434.689z M395.1,349.801c4.547,0,8.247,3.7,8.247,8.248v9.425h-16.494v-9.425h-0.001
			C386.852,353.501,390.551,349.801,395.1,349.801z M413.008,424.741h-36.526V398.82h36.526V424.741z"/>
	</g>
</g>
<g>
	<g>
		<path d="M394.068,276.12c-7.752,0-15.4,0.746-22.892,2.223v-8.056h39.691V150.452h-39.691v-30.599h39.691V0.015H0v119.837h39.692
			v30.599H0v119.836h39.692v30.6H0v119.837h39.692v61.944h276.58c21.532,18.949,48.907,29.315,77.796,29.315
			c65.027,0,117.932-52.904,117.932-117.932C512,329.025,459.097,276.12,394.068,276.12z M31.345,88.508v-0.001V31.36h348.177
			v57.147h-8.346H39.692H31.345z M339.831,119.852v30.599H71.037v-30.599H339.831z M31.345,238.943v-57.146h8.347h331.484h8.346
			v57.146H31.345z M339.831,270.895v18.418c-0.415,0.215-0.817,0.453-1.23,0.674c-0.935,0.498-1.867,1.003-2.788,1.526
			c-0.587,0.333-1.167,0.678-1.748,1.022c-0.893,0.529-1.78,1.067-2.66,1.62c-0.574,0.36-1.144,0.725-1.711,1.095
			c-0.877,0.572-1.743,1.157-2.604,1.752c-0.547,0.377-1.093,0.754-1.633,1.141c-0.877,0.628-1.741,1.275-2.601,1.928
			c-0.364,0.276-0.74,0.535-1.1,0.816H71.037v-29.992H339.831z M71.037,451.323v-30.598h208.148
			c0.043,0.185,0.095,0.368,0.139,0.552c0.115,0.483,0.241,0.962,0.363,1.443c0.26,1.035,0.531,2.068,0.818,3.095
			c0.15,0.537,0.306,1.073,0.465,1.608c0.296,1,0.607,1.995,0.929,2.986c0.163,0.5,0.322,1.002,0.491,1.5
			c0.401,1.18,0.823,2.351,1.261,3.516c0.108,0.285,0.205,0.574,0.315,0.858c0.554,1.439,1.137,2.866,1.746,4.283
			c0.168,0.392,0.35,0.778,0.522,1.168c0.457,1.031,0.924,2.057,1.409,3.074c0.235,0.493,0.479,0.982,0.721,1.472
			c0.459,0.927,0.928,1.846,1.411,2.76c0.255,0.484,0.511,0.968,0.772,1.448c0.151,0.277,0.293,0.559,0.445,0.835H71.037z
			 M292.901,333.48c-0.372,0.622-0.738,1.246-1.098,1.874c-0.218,0.38-0.437,0.76-0.651,1.142c-0.382,0.683-0.754,1.373-1.123,2.064
			c-0.174,0.326-0.352,0.65-0.522,0.977c-0.53,1.016-1.047,2.036-1.546,3.067c-0.044,0.091-0.085,0.183-0.129,0.273
			c-0.456,0.946-0.898,1.896-1.328,2.852c-0.156,0.346-0.304,0.695-0.456,1.043c-0.311,0.712-0.619,1.424-0.916,2.142
			c-0.164,0.396-0.324,0.794-0.485,1.192c-0.276,0.689-0.546,1.378-0.81,2.072c-0.151,0.398-0.303,0.796-0.45,1.196
			c-0.271,0.736-0.532,1.476-0.788,2.217c-0.121,0.351-0.247,0.701-0.365,1.054c-0.346,1.032-0.679,2.069-0.996,3.112
			c-0.018,0.058-0.038,0.117-0.055,0.176c-0.334,1.105-0.65,2.217-0.952,3.334c-0.09,0.334-0.173,0.671-0.261,1.005
			c-0.205,0.785-0.405,1.571-0.595,2.36c-0.097,0.408-0.19,0.816-0.283,1.225c-0.167,0.735-0.328,1.471-0.482,2.21
			c-0.087,0.417-0.172,0.834-0.255,1.252c-0.15,0.767-0.292,1.535-0.427,2.306c-0.067,0.378-0.137,0.755-0.2,1.134
			c-0.162,0.974-0.309,1.951-0.447,2.93c-0.024,0.171-0.052,0.341-0.076,0.512c-0.157,1.155-0.295,2.312-0.417,3.474
			c-0.033,0.318-0.06,0.636-0.09,0.955c-0.083,0.843-0.159,1.687-0.223,2.535c-0.031,0.415-0.056,0.83-0.084,1.245
			c-0.05,0.765-0.093,1.529-0.128,2.296c-0.01,0.227-0.029,0.451-0.038,0.678H39.692h-8.347v-0.002v-57.147h8.347v0.607h253.584
			C293.148,333.05,293.028,333.268,292.901,333.48z M394.068,480.64c-22.832,0-44.378-8.815-60.669-24.822
			c-5.353-5.26-9.968-11.164-13.756-17.535c-6.315-10.618-10.337-22.53-11.659-34.896c-0.332-3.113-0.502-6.252-0.502-9.333
			c0-4.672,0.378-9.302,1.116-13.851c3.075-18.952,12.4-36.483,26.663-49.694c0.333-0.308,0.674-0.609,1.012-0.913
			c0.24-0.215,0.475-0.435,0.718-0.648l0.01-0.009l0.89-0.765c7.05-6.019,14.96-10.846,23.527-14.337
			c10.373-4.227,21.357-6.37,32.65-6.37c47.744,0,86.587,38.843,86.587,86.588C480.655,441.797,441.812,480.64,394.068,480.64z"/>
	</g>
</g>
<g>
	<g>
		<rect x="49.791" y="49.093" width="21.68" height="21.68"/>
	</g>
</g>
<g>
	<g>
		<rect x="88.799" y="49.093" width="21.68" height="21.68"/>
	</g>
</g>
<g>
	<g>
		<rect x="49.791" y="199.532" width="21.68" height="21.68"/>
	</g>
</g>
<g>
	<g>
		<rect x="88.799" y="199.532" width="21.68" height="21.68"/>
	</g>
</g>
<g>
	<g>
		<rect x="49.791" y="351.378" width="21.68" height="21.68"/>
	</g>
</g>
<g>
	<g>
		<rect x="88.799" y="351.378" width="21.68" height="21.68"/>
	</g>
</g>
</svg>