<?xml version="1.0" encoding="utf-8"?>
<!-- Generator: Adobe Illustrator 24.1.1, SVG Export Plug-In . SVG Version: 6.00 Build 0)  -->
<svg version="1.1" id="Layer_1" xmlns="http://www.w3.org/2000/svg" xmlns:xlink="http://www.w3.org/1999/xlink" x="0px" y="0px"
	 viewBox="0 0 512 512" style="enable-background:new 0 0 512 512;" xml:space="preserve">
<g>
	<path d="M388.3,38.9l-7.2,34.6c-7.4,1.2-14.5,3.3-21.2,6.3l-24.8-25.1l-28.3,22.9l19.4,29.6c-4.3,5.9-7.8,12.4-10.5,19.4l-35.3-0.2
		l-3.8,36.2l34.6,7.2c1.2,7.4,3.3,14.5,6.3,21.1l-25.1,24.9l22.9,28.3l29.6-19.4c5.9,4.3,12.4,7.9,19.4,10.5l-0.2,35.3l36.2,3.8
		l7.2-34.6c7.4-1.2,14.5-3.3,21.2-6.3l24.9,25.1l28.3-22.9l-19.4-29.5c4.3-5.9,7.9-12.4,10.5-19.4l35.3,0.1l3.8-36.2l-34.6-7.2
		c-1.2-7.4-3.3-14.6-6.3-21.2l25.1-24.8l-22.9-28.3l-29.5,19.4c-5.9-4.3-12.4-7.9-19.4-10.5l0.2-35.3L388.3,38.9L388.3,38.9z
		 M394.3,123c1.1,0,2.3,0,3.4,0.2c18.5,1.9,31.9,18.5,30,37c-1.9,18.5-18.5,31.9-37,30c-18.5-1.9-31.9-18.5-30-37
		C362.6,135.8,377.3,122.9,394.3,123z M134.5,126l-4.9,48.1c-9.9,2.6-19.3,6.5-27.9,11.6L64.3,155l-35.2,35.2l30.6,37.5
		c-5,8.7-8.9,18-11.6,27.9L0,260.5v49.8l48.1,4.9c2.6,9.9,6.5,19.3,11.6,27.9l-30.6,37.5l35.2,35.2l37.5-30.6
		c8.7,5,18,8.9,27.9,11.6l4.9,48.1h49.8l4.8-48.1c9.9-2.6,19.3-6.5,27.9-11.6l37.5,30.6l35.2-35.2l-30.6-37.4
		c5-8.7,8.9-18,11.6-27.9l48.1-4.9v-49.8l-48.1-4.8c-2.6-9.9-6.5-19.3-11.6-28l30.6-37.4L254.5,155l-37.4,30.6
		c-8.7-5-18.1-8.9-28-11.6l-4.8-48.1L134.5,126L134.5,126z M159.4,239.3c25.4,0,46.1,20.6,46.1,46.1c0,25.4-20.6,46.1-46.1,46.1
		s-46.1-20.6-46.1-46.1C113.3,259.9,134,239.3,159.4,239.3z M370.9,300.8l-5.1,25.3c-5.2,0.9-10.2,2.4-14.9,4.6l-17.5-18.4
		l-19.9,16.8l13.6,21.6c-3,4.3-5.5,9.1-7.4,14.2l-24.8-0.1l-2.7,26.5l24.3,5.3c0.8,5.4,2.3,10.6,4.4,15.5l-17.6,18.2l16.1,20.7
		l20.8-14.2c4.2,3.2,8.7,5.7,13.6,7.7l-0.1,25.9l25.5,2.8l5-25.3c5.2-0.8,10.2-2.4,14.9-4.6l17.5,18.4l19.9-16.8l-13.6-21.6
		c3-4.3,5.5-9.1,7.4-14.2l24.8,0.1l2.7-26.5l-24.3-5.3c-0.8-5.4-2.3-10.6-4.4-15.5l17.6-18.2l-16.1-20.7l-20.8,14.2
		c-4.2-3.2-8.7-5.7-13.7-7.7l0.1-25.8L370.9,300.8L370.9,300.8z M375.1,362.3c0.8,0,1.6,0,2.4,0.1c13,1.4,22.4,13.5,21,27.1
		c-1.4,13.5-13,23.4-26,21.9c-13-1.4-22.4-13.5-21.1-27.1C352.8,371.7,363.1,362.3,375.1,362.3z"/>
</g>
</svg>
